<svg width="447" height="144" viewBox="0 0 447 144" fill="none" xmlns="http://www.w3.org/2000/svg">
<g clip-path="url(#clip0_68_50)">
<circle cx="72" cy="72" r="62" fill="white" stroke="url(#paint0_linear_68_50)" stroke-width="20"/>
<path d="M70.7638 37.0216C66.729 37.5001 56.8596 40.0087 57.261 51.5017C57.5576 59.9965 64.8259 61.9421 68.6731 63.1105C73.7297 64.6462 80.1486 62.2094 89.3002 66.3926C98.9468 70.802 100.282 80.0176 102.903 83.4282C105.524 86.8388 107.946 70.2442 104.082 59.8727C100.217 49.5013 91.1482 42.4184 87.3934 40.4433C80.2581 36.69 76.7427 36.3125 70.7638 37.0216Z" fill="url(#paint1_linear_68_50)" stroke="url(#paint2_linear_68_50)"/>
<path d="M73.2362 107.818C77.271 107.34 87.1404 104.831 86.739 93.3384C86.4424 84.8436 79.1741 82.898 75.327 81.7296C70.2703 80.1939 63.8514 82.6306 54.6998 78.4475C45.0532 74.038 43.7177 64.8224 41.097 61.4118C38.4764 58.0012 36.0541 74.5958 39.9184 84.9673C43.7827 95.3388 52.8518 102.422 56.6066 104.397C63.742 108.15 67.2573 108.528 73.2362 107.818Z" fill="url(#paint3_linear_68_50)" stroke="url(#paint4_linear_68_50)"/>
</g>
<path d="M209.112 57.8338C208.851 55.1984 207.729 53.151 205.747 51.6918C203.765 50.2325 201.075 49.5028 197.678 49.5028C195.369 49.5028 193.42 49.8295 191.83 50.483C190.24 51.1146 189.02 51.9967 188.17 53.1293C187.343 54.2618 186.929 55.5469 186.929 56.9844C186.885 58.1823 187.136 59.2277 187.68 60.1207C188.247 61.0137 189.02 61.7869 190 62.4403C190.98 63.072 192.113 63.6274 193.398 64.1065C194.683 64.5639 196.055 64.956 197.514 65.2827L203.526 66.7202C206.444 67.3736 209.123 68.2448 211.562 69.3338C214.002 70.4228 216.115 71.7623 217.901 73.3523C219.687 74.9422 221.07 76.8153 222.05 78.9716C223.052 81.1278 223.563 83.5999 223.585 86.3878C223.563 90.4825 222.518 94.0327 220.449 97.0384C218.402 100.022 215.439 102.342 211.562 103.997C207.707 105.631 203.057 106.447 197.612 106.447C192.211 106.447 187.506 105.62 183.499 103.964C179.513 102.309 176.398 99.8589 174.155 96.6136C171.933 93.3466 170.768 89.3063 170.659 84.4929H184.348C184.5 86.7363 185.143 88.6094 186.276 90.1122C187.43 91.5933 188.965 92.715 190.882 93.4773C192.821 94.2178 195.009 94.5881 197.449 94.5881C199.845 94.5881 201.925 94.2396 203.689 93.5426C205.475 92.8456 206.858 91.8764 207.838 90.6349C208.818 89.3935 209.308 87.9669 209.308 86.3551C209.308 84.8523 208.862 83.589 207.969 82.5653C207.098 81.5417 205.813 80.6705 204.114 79.9517C202.437 79.233 200.378 78.5795 197.939 77.9915L190.653 76.1619C185.012 74.7898 180.558 72.6444 177.291 69.7259C174.024 66.8073 172.402 62.8759 172.423 57.9318C172.402 53.8807 173.48 50.3414 175.658 47.3139C177.857 44.2865 180.874 41.9233 184.707 40.2244C188.541 38.5256 192.897 37.6761 197.776 37.6761C202.741 37.6761 207.076 38.5256 210.778 40.2244C214.503 41.9233 217.4 44.2865 219.469 47.3139C221.538 50.3414 222.605 53.848 222.67 57.8338H209.112ZM248.152 106.48C243.078 106.48 238.689 105.402 234.986 103.246C231.305 101.068 228.463 98.0402 226.459 94.1634C224.455 90.2647 223.454 85.7453 223.454 80.6051C223.454 75.4214 224.455 70.8911 226.459 67.0142C228.463 63.1155 231.305 60.0881 234.986 57.9318C238.689 55.7538 243.078 54.6648 248.152 54.6648C253.227 54.6648 257.605 55.7538 261.286 57.9318C264.989 60.0881 267.842 63.1155 269.846 67.0142C271.849 70.8911 272.851 75.4214 272.851 80.6051C272.851 85.7453 271.849 90.2647 269.846 94.1634C267.842 98.0402 264.989 101.068 261.286 103.246C257.605 105.402 253.227 106.48 248.152 106.48ZM248.218 95.6989C250.526 95.6989 252.454 95.0455 254 93.7386C255.547 92.41 256.712 90.6023 257.496 88.3153C258.302 86.0284 258.705 83.4257 258.705 80.5071C258.705 77.5885 258.302 74.9858 257.496 72.6989C256.712 70.4119 255.547 68.6042 254 67.2756C252.454 65.947 250.526 65.2827 248.218 65.2827C245.887 65.2827 243.927 65.947 242.337 67.2756C240.769 68.6042 239.582 70.4119 238.776 72.6989C237.992 74.9858 237.6 77.5885 237.6 80.5071C237.6 83.4257 237.992 86.0284 238.776 88.3153C239.582 90.6023 240.769 92.41 242.337 93.7386C243.927 95.0455 245.887 95.6989 248.218 95.6989ZM288.459 76.4886V105.5H274.541V55.3182H287.805V64.1719H288.393C289.504 61.2533 291.366 58.9446 293.98 57.2457C296.594 55.5251 299.763 54.6648 303.487 54.6648C306.972 54.6648 310.01 55.4271 312.602 56.9517C315.194 58.4763 317.209 60.6544 318.646 63.4858C320.084 66.2955 320.802 69.6496 320.802 73.5483V105.5H306.885V76.0312C306.907 72.9602 306.122 70.5644 304.532 68.8438C302.943 67.1013 300.754 66.2301 297.966 66.2301C296.093 66.2301 294.437 66.633 293 67.4389C291.584 68.2448 290.473 69.4209 289.667 70.9673C288.883 72.492 288.48 74.3324 288.459 76.4886ZM338.721 106.447C335.519 106.447 332.666 105.892 330.161 104.781C327.657 103.649 325.675 101.982 324.215 99.7827C322.778 97.5611 322.059 94.795 322.059 91.4844C322.059 88.6965 322.571 86.3551 323.595 84.4602C324.618 82.5653 326.012 81.0407 327.777 79.8864C329.541 78.732 331.545 77.8608 333.788 77.2727C336.053 76.6847 338.427 76.2708 340.91 76.0312C343.829 75.7263 346.181 75.4432 347.967 75.1818C349.753 74.8987 351.049 74.4848 351.855 73.9403C352.661 73.3958 353.063 72.59 353.063 71.5227V71.3267C353.063 69.2576 352.41 67.6567 351.103 66.5241C349.818 65.3916 347.989 64.8253 345.615 64.8253C343.11 64.8253 341.117 65.3807 339.636 66.4915C338.155 67.5805 337.175 68.9527 336.696 70.608L323.823 69.5625C324.477 66.5133 325.762 63.8778 327.679 61.6562C329.595 59.4129 332.067 57.6922 335.095 56.4943C338.144 55.2746 341.672 54.6648 345.68 54.6648C348.468 54.6648 351.136 54.9915 353.684 55.6449C356.254 56.2983 358.53 57.3111 360.512 58.6832C362.516 60.0554 364.095 61.8196 365.25 63.9759C366.404 66.1103 366.981 68.6695 366.981 71.6534V105.5H353.782V98.5412H353.39C352.584 100.109 351.506 101.492 350.156 102.69C348.805 103.866 347.183 104.792 345.288 105.467C343.393 106.121 341.204 106.447 338.721 106.447ZM342.707 96.8423C344.754 96.8423 346.562 96.4394 348.13 95.6335C349.698 94.8059 350.929 93.6951 351.822 92.3011C352.715 90.9072 353.161 89.3281 353.161 87.5639V82.2386C352.726 82.5218 352.127 82.7831 351.365 83.0227C350.624 83.2405 349.786 83.4474 348.849 83.6435C347.912 83.8177 346.976 83.9811 346.039 84.1335C345.103 84.2642 344.253 84.384 343.491 84.4929C341.857 84.7325 340.431 85.1136 339.211 85.6364C337.991 86.1591 337.044 86.867 336.369 87.7599C335.694 88.6312 335.356 89.7202 335.356 91.027C335.356 92.9219 336.042 94.3703 337.414 95.3722C338.808 96.3523 340.572 96.8423 342.707 96.8423ZM397.11 55.3182V65.7727H366.89V55.3182H397.11ZM373.751 43.2955H387.669V90.0795C387.669 91.3646 387.865 92.3665 388.257 93.0852C388.649 93.7822 389.193 94.2723 389.89 94.5554C390.609 94.8385 391.437 94.9801 392.373 94.9801C393.027 94.9801 393.68 94.9257 394.333 94.8168C394.987 94.6861 395.488 94.5881 395.836 94.5227L398.025 104.879C397.328 105.097 396.348 105.348 395.085 105.631C393.822 105.936 392.286 106.121 390.478 106.186C387.124 106.317 384.184 105.87 381.657 104.847C379.153 103.823 377.203 102.233 375.809 100.077C374.415 97.9205 373.729 95.1979 373.751 91.9091V43.2955ZM413.126 106.447C409.924 106.447 407.071 105.892 404.566 104.781C402.062 103.649 400.08 101.982 398.62 99.7827C397.183 97.5611 396.464 94.795 396.464 91.4844C396.464 88.6965 396.976 86.3551 398 84.4602C399.023 82.5653 400.417 81.0407 402.182 79.8864C403.946 78.732 405.95 77.8608 408.193 77.2727C410.458 76.6847 412.832 76.2708 415.315 76.0312C418.234 75.7263 420.586 75.4432 422.372 75.1818C424.158 74.8987 425.454 74.4848 426.26 73.9403C427.066 73.3958 427.468 72.59 427.468 71.5227V71.3267C427.468 69.2576 426.815 67.6567 425.508 66.5241C424.223 65.3916 422.394 64.8253 420.02 64.8253C417.515 64.8253 415.522 65.3807 414.041 66.4915C412.56 67.5805 411.58 68.9527 411.101 70.608L398.228 69.5625C398.882 66.5133 400.167 63.8778 402.084 61.6562C404 59.4129 406.472 57.6922 409.5 56.4943C412.549 55.2746 416.077 54.6648 420.085 54.6648C422.873 54.6648 425.541 54.9915 428.089 55.6449C430.659 56.2983 432.935 57.3111 434.917 58.6832C436.921 60.0554 438.5 61.8196 439.655 63.9759C440.809 66.1103 441.386 68.6695 441.386 71.6534V105.5H428.187V98.5412H427.795C426.989 100.109 425.911 101.492 424.561 102.69C423.21 103.866 421.588 104.792 419.693 105.467C417.798 106.121 415.609 106.447 413.126 106.447ZM417.112 96.8423C419.159 96.8423 420.967 96.4394 422.535 95.6335C424.103 94.8059 425.334 93.6951 426.227 92.3011C427.12 90.9072 427.566 89.3281 427.566 87.5639V82.2386C427.131 82.5218 426.532 82.7831 425.77 83.0227C425.029 83.2405 424.191 83.4474 423.254 83.6435C422.317 83.8177 421.381 83.9811 420.444 84.1335C419.508 84.2642 418.658 84.384 417.896 84.4929C416.262 84.7325 414.836 85.1136 413.616 85.6364C412.396 86.1591 411.449 86.867 410.774 87.7599C410.099 88.6312 409.761 89.7202 409.761 91.027C409.761 92.9219 410.447 94.3703 411.819 95.3722C413.213 96.3523 414.977 96.8423 417.112 96.8423Z" fill="#1C2024"/>
<defs>
<linearGradient id="paint0_linear_68_50" x1="72" y1="0" x2="72" y2="144" gradientUnits="userSpaceOnUse">
<stop offset="0.24" stop-color="#1C2024"/>
<stop offset="1" stop-color="#BBC2D2"/>
</linearGradient>
<linearGradient id="paint1_linear_68_50" x1="105.669" y1="59.6928" x2="57.6032" y2="61.295" gradientUnits="userSpaceOnUse">
<stop offset="0.24" stop-color="#1C2024"/>
<stop offset="1" stop-color="#BBC2D2"/>
</linearGradient>
<linearGradient id="paint2_linear_68_50" x1="80.7987" y1="36.5111" x2="82.4787" y2="84.6202" gradientUnits="userSpaceOnUse">
<stop offset="0.24" stop-color="#1C2024"/>
<stop offset="1" stop-color="#BBC2D2"/>
</linearGradient>
<linearGradient id="paint3_linear_68_50" x1="38.3305" y1="85.1472" x2="86.3968" y2="83.545" gradientUnits="userSpaceOnUse">
<stop offset="0.24" stop-color="#1C2024"/>
<stop offset="1" stop-color="#BBC2D2"/>
</linearGradient>
<linearGradient id="paint4_linear_68_50" x1="63.2013" y1="108.329" x2="61.5213" y2="60.2198" gradientUnits="userSpaceOnUse">
<stop offset="0.24" stop-color="#1C2024"/>
<stop offset="1" stop-color="#BBC2D2"/>
</linearGradient>
<clipPath id="clip0_68_50">
<rect width="144" height="144" fill="white"/>
</clipPath>
</defs>
</svg>
