<svg width="450" height="146" viewBox="0 0 450 146" fill="none" xmlns="http://www.w3.org/2000/svg">
<g clip-path="url(#clip0_404_37)">
<g clip-path="url(#clip1_404_37)">
<g clip-path="url(#clip2_404_37)">
<path d="M109.354 11C143.791 30.8822 155.59 74.9167 135.708 109.354C115.825 143.791 71.7909 155.59 37.3538 135.708C2.91676 115.825 -8.88225 71.7909 11 37.3538C30.8822 2.91674 74.9168 -8.88227 109.354 11Z" fill="url(#paint0_linear_404_37)"/>
<g filter="url(#filter0_dddd_404_37)">
<circle cx="73.3536" cy="73.3538" r="52" transform="rotate(-60 73.3536 73.3538)" fill="url(#paint1_linear_404_37)"/>
<circle cx="73.3536" cy="73.3538" r="51.5" transform="rotate(-60 73.3536 73.3538)" stroke="white" stroke-opacity="0.3"/>
</g>
<g filter="url(#filter1_dddd_404_37)">
<path d="M82.0094 81.532C86.2411 84.5417 89.3049 88.8427 90.417 93.3343C91.5912 98.0746 90.4408 102.525 87.2626 105.547C81.1533 111.357 69.9374 112.762 59.402 107.485C46.3026 100.924 35.8915 85.2408 35.5852 69.0225C44.283 75.5549 51.4367 75.1643 59.8699 75.653C67.635 76.1024 74.97 76.527 82.0094 81.532Z" fill="url(#paint2_linear_404_37)"/>
<path d="M89.9317 93.4545L89.9317 93.4545C91.0686 98.0443 89.9491 102.303 86.9181 105.185C80.9967 110.816 70.0205 112.245 59.6259 107.038L59.6259 107.038C46.9657 100.696 36.8252 85.6975 36.1177 70.0303C43.6553 75.3759 50.1242 75.6823 57.1872 76.0169C58.0617 76.0584 58.9452 76.1002 59.841 76.1521L59.841 76.1521C67.6196 76.6024 74.8127 77.0287 81.7196 81.9395C85.8666 84.8889 88.8518 89.0933 89.9317 93.4545Z" stroke="white" stroke-opacity="0.05"/>
</g>
<g filter="url(#filter2_dddd_404_37)">
<path d="M65.1986 64.3095C60.9669 61.2998 57.9031 56.9988 56.791 52.5073C55.6168 47.7669 56.7672 43.3161 59.9454 40.2941C66.0547 34.485 77.2706 33.0791 87.806 38.3569C100.905 44.918 111.317 60.6008 111.623 76.8191C102.925 70.2866 95.7713 70.6772 87.3381 70.1886C79.5731 69.7391 72.238 69.3145 65.1986 64.3095Z" fill="url(#paint3_linear_404_37)"/>
<path d="M57.2763 52.3871L57.2763 52.3871C56.1395 47.7973 57.2589 43.5385 60.2899 40.6564C66.2113 35.026 77.1875 33.5967 87.5821 38.8039L87.5821 38.8039C100.242 45.1451 110.383 60.1441 111.09 75.8113C103.553 70.4657 97.0838 70.1592 90.0208 69.8246C89.1463 69.7832 88.2628 69.7413 87.367 69.6894L87.367 69.6894C79.5884 69.2392 72.3953 68.8129 65.4884 63.9021C61.3414 60.9526 58.3562 56.7483 57.2763 52.3871Z" stroke="white" stroke-opacity="0.05"/>
</g>
</g>
</g>
</g>
<path d="M212.112 59.3338C211.851 56.6984 210.729 54.651 208.747 53.1918C206.765 51.7325 204.075 51.0028 200.678 51.0028C198.369 51.0028 196.42 51.3295 194.83 51.983C193.24 52.6146 192.02 53.4967 191.17 54.6293C190.343 55.7618 189.929 57.0469 189.929 58.4844C189.885 59.6823 190.136 60.7277 190.68 61.6207C191.247 62.5137 192.02 63.2869 193 63.9403C193.98 64.572 195.113 65.1274 196.398 65.6065C197.683 66.0639 199.055 66.456 200.514 66.7827L206.526 68.2202C209.444 68.8736 212.123 69.7448 214.562 70.8338C217.002 71.9228 219.115 73.2623 220.901 74.8523C222.687 76.4422 224.07 78.3153 225.05 80.4716C226.052 82.6278 226.563 85.0999 226.585 87.8878C226.563 91.9825 225.518 95.5327 223.449 98.5384C221.402 101.522 218.439 103.842 214.562 105.497C210.707 107.131 206.057 107.947 200.612 107.947C195.211 107.947 190.506 107.12 186.499 105.464C182.513 103.809 179.398 101.359 177.155 98.1136C174.933 94.8466 173.768 90.8063 173.659 85.9929H187.348C187.5 88.2363 188.143 90.1094 189.276 91.6122C190.43 93.0933 191.965 94.215 193.882 94.9773C195.821 95.7178 198.009 96.0881 200.449 96.0881C202.845 96.0881 204.925 95.7396 206.689 95.0426C208.475 94.3456 209.858 93.3764 210.838 92.1349C211.818 90.8935 212.308 89.4669 212.308 87.8551C212.308 86.3523 211.862 85.089 210.969 84.0653C210.098 83.0417 208.813 82.1705 207.114 81.4517C205.437 80.733 203.378 80.0795 200.939 79.4915L193.653 77.6619C188.012 76.2898 183.558 74.1444 180.291 71.2259C177.024 68.3073 175.402 64.3759 175.423 59.4318C175.402 55.3807 176.48 51.8414 178.658 48.8139C180.857 45.7865 183.874 43.4233 187.707 41.7244C191.541 40.0256 195.897 39.1761 200.776 39.1761C205.741 39.1761 210.076 40.0256 213.778 41.7244C217.503 43.4233 220.4 45.7865 222.469 48.8139C224.538 51.8414 225.605 55.348 225.67 59.3338H212.112ZM251.152 107.98C246.078 107.98 241.689 106.902 237.986 104.746C234.305 102.568 231.463 99.5402 229.459 95.6634C227.455 91.7647 226.454 87.2453 226.454 82.1051C226.454 76.9214 227.455 72.3911 229.459 68.5142C231.463 64.6155 234.305 61.5881 237.986 59.4318C241.689 57.2538 246.078 56.1648 251.152 56.1648C256.227 56.1648 260.605 57.2538 264.286 59.4318C267.989 61.5881 270.842 64.6155 272.846 68.5142C274.849 72.3911 275.851 76.9214 275.851 82.1051C275.851 87.2453 274.849 91.7647 272.846 95.6634C270.842 99.5402 267.989 102.568 264.286 104.746C260.605 106.902 256.227 107.98 251.152 107.98ZM251.218 97.1989C253.526 97.1989 255.454 96.5455 257 95.2386C258.547 93.91 259.712 92.1023 260.496 89.8153C261.302 87.5284 261.705 84.9257 261.705 82.0071C261.705 79.0885 261.302 76.4858 260.496 74.1989C259.712 71.9119 258.547 70.1042 257 68.7756C255.454 67.447 253.526 66.7827 251.218 66.7827C248.887 66.7827 246.927 67.447 245.337 68.7756C243.769 70.1042 242.582 71.9119 241.776 74.1989C240.992 76.4858 240.6 79.0885 240.6 82.0071C240.6 84.9257 240.992 87.5284 241.776 89.8153C242.582 92.1023 243.769 93.91 245.337 95.2386C246.927 96.5455 248.887 97.1989 251.218 97.1989ZM291.459 77.9886V107H277.541V56.8182H290.805V65.6719H291.393C292.504 62.7533 294.366 60.4446 296.98 58.7457C299.594 57.0251 302.763 56.1648 306.487 56.1648C309.972 56.1648 313.01 56.9271 315.602 58.4517C318.194 59.9763 320.209 62.1544 321.646 64.9858C323.084 67.7955 323.802 71.1496 323.802 75.0483V107H309.885V77.5312C309.907 74.4602 309.122 72.0644 307.532 70.3438C305.943 68.6013 303.754 67.7301 300.966 67.7301C299.093 67.7301 297.437 68.133 296 68.9389C294.584 69.7448 293.473 70.9209 292.667 72.4673C291.883 73.992 291.48 75.8324 291.459 77.9886ZM341.721 107.947C338.519 107.947 335.666 107.392 333.161 106.281C330.657 105.149 328.675 103.482 327.215 101.283C325.778 99.0611 325.059 96.295 325.059 92.9844C325.059 90.1965 325.571 87.8551 326.595 85.9602C327.618 84.0653 329.012 82.5407 330.777 81.3864C332.541 80.232 334.545 79.3608 336.788 78.7727C339.053 78.1847 341.427 77.7708 343.91 77.5312C346.829 77.2263 349.181 76.9432 350.967 76.6818C352.753 76.3987 354.049 75.9848 354.855 75.4403C355.661 74.8958 356.063 74.09 356.063 73.0227V72.8267C356.063 70.7576 355.41 69.1567 354.103 68.0241C352.818 66.8916 350.989 66.3253 348.615 66.3253C346.11 66.3253 344.117 66.8807 342.636 67.9915C341.155 69.0805 340.175 70.4527 339.696 72.108L326.823 71.0625C327.477 68.0133 328.762 65.3778 330.679 63.1562C332.595 60.9129 335.067 59.1922 338.095 57.9943C341.144 56.7746 344.672 56.1648 348.68 56.1648C351.468 56.1648 354.136 56.4915 356.684 57.1449C359.254 57.7983 361.53 58.8111 363.512 60.1832C365.516 61.5554 367.095 63.3196 368.25 65.4759C369.404 67.6103 369.981 70.1695 369.981 73.1534V107H356.782V100.041H356.39C355.584 101.609 354.506 102.992 353.156 104.19C351.805 105.366 350.183 106.292 348.288 106.967C346.393 107.621 344.204 107.947 341.721 107.947ZM345.707 98.3423C347.754 98.3423 349.562 97.9394 351.13 97.1335C352.698 96.3059 353.929 95.1951 354.822 93.8011C355.715 92.4072 356.161 90.8281 356.161 89.0639V83.7386C355.726 84.0218 355.127 84.2831 354.365 84.5227C353.624 84.7405 352.786 84.9474 351.849 85.1435C350.912 85.3177 349.976 85.4811 349.039 85.6335C348.103 85.7642 347.253 85.884 346.491 85.9929C344.857 86.2325 343.431 86.6136 342.211 87.1364C340.991 87.6591 340.044 88.367 339.369 89.2599C338.694 90.1312 338.356 91.2202 338.356 92.527C338.356 94.4219 339.042 95.8703 340.414 96.8722C341.808 97.8523 343.572 98.3423 345.707 98.3423ZM400.11 56.8182V67.2727H369.89V56.8182H400.11ZM376.751 44.7955H390.669V91.5795C390.669 92.8646 390.865 93.8665 391.257 94.5852C391.649 95.2822 392.193 95.7723 392.89 96.0554C393.609 96.3385 394.437 96.4801 395.373 96.4801C396.027 96.4801 396.68 96.4257 397.333 96.3168C397.987 96.1861 398.488 96.0881 398.836 96.0227L401.025 106.379C400.328 106.597 399.348 106.848 398.085 107.131C396.822 107.436 395.286 107.621 393.478 107.686C390.124 107.817 387.184 107.37 384.657 106.347C382.153 105.323 380.203 103.733 378.809 101.577C377.415 99.4205 376.729 96.6979 376.751 93.4091V44.7955ZM416.126 107.947C412.924 107.947 410.071 107.392 407.566 106.281C405.062 105.149 403.08 103.482 401.62 101.283C400.183 99.0611 399.464 96.295 399.464 92.9844C399.464 90.1965 399.976 87.8551 401 85.9602C402.023 84.0653 403.417 82.5407 405.182 81.3864C406.946 80.232 408.95 79.3608 411.193 78.7727C413.458 78.1847 415.832 77.7708 418.315 77.5312C421.234 77.2263 423.586 76.9432 425.372 76.6818C427.158 76.3987 428.454 75.9848 429.26 75.4403C430.066 74.8958 430.468 74.09 430.468 73.0227V72.8267C430.468 70.7576 429.815 69.1567 428.508 68.0241C427.223 66.8916 425.394 66.3253 423.02 66.3253C420.515 66.3253 418.522 66.8807 417.041 67.9915C415.56 69.0805 414.58 70.4527 414.101 72.108L401.228 71.0625C401.882 68.0133 403.167 65.3778 405.084 63.1562C407 60.9129 409.472 59.1922 412.5 57.9943C415.549 56.7746 419.077 56.1648 423.085 56.1648C425.873 56.1648 428.541 56.4915 431.089 57.1449C433.659 57.7983 435.935 58.8111 437.917 60.1832C439.921 61.5554 441.5 63.3196 442.655 65.4759C443.809 67.6103 444.386 70.1695 444.386 73.1534V107H431.187V100.041H430.795C429.989 101.609 428.911 102.992 427.561 104.19C426.21 105.366 424.588 106.292 422.693 106.967C420.798 107.621 418.609 107.947 416.126 107.947ZM420.112 98.3423C422.159 98.3423 423.967 97.9394 425.535 97.1335C427.103 96.3059 428.334 95.1951 429.227 93.8011C430.12 92.4072 430.566 90.8281 430.566 89.0639V83.7386C430.131 84.0218 429.532 84.2831 428.77 84.5227C428.029 84.7405 427.191 84.9474 426.254 85.1435C425.317 85.3177 424.381 85.4811 423.444 85.6335C422.508 85.7642 421.658 85.884 420.896 85.9929C419.262 86.2325 417.836 86.6136 416.616 87.1364C415.396 87.6591 414.449 88.367 413.774 89.2599C413.099 90.1312 412.761 91.2202 412.761 92.527C412.761 94.4219 413.447 95.8703 414.819 96.8722C416.213 97.8523 417.977 98.3423 420.112 98.3423Z" fill="#ffffff"/>
<defs>
<filter id="filter0_dddd_404_37" x="9.34473" y="19.3452" width="128.018" height="147.017" filterUnits="userSpaceOnUse" color-interpolation-filters="sRGB">
<feFlood flood-opacity="0" result="BackgroundImageFix"/>
<feColorMatrix in="SourceAlpha" type="matrix" values="0 0 0 0 0 0 0 0 0 0 0 0 0 0 0 0 0 0 127 0" result="hardAlpha"/>
<feOffset dy="2"/>
<feGaussianBlur stdDeviation="2"/>
<feColorMatrix type="matrix" values="0 0 0 0 0 0 0 0 0 0 0 0 0 0 0 0 0 0 0.2 0"/>
<feBlend mode="normal" in2="BackgroundImageFix" result="effect1_dropShadow_404_37"/>
<feColorMatrix in="SourceAlpha" type="matrix" values="0 0 0 0 0 0 0 0 0 0 0 0 0 0 0 0 0 0 127 0" result="hardAlpha"/>
<feOffset dy="7"/>
<feGaussianBlur stdDeviation="3.5"/>
<feColorMatrix type="matrix" values="0 0 0 0 0 0 0 0 0 0 0 0 0 0 0 0 0 0 0.17 0"/>
<feBlend mode="normal" in2="effect1_dropShadow_404_37" result="effect2_dropShadow_404_37"/>
<feColorMatrix in="SourceAlpha" type="matrix" values="0 0 0 0 0 0 0 0 0 0 0 0 0 0 0 0 0 0 127 0" result="hardAlpha"/>
<feOffset dy="16"/>
<feGaussianBlur stdDeviation="5"/>
<feColorMatrix type="matrix" values="0 0 0 0 0 0 0 0 0 0 0 0 0 0 0 0 0 0 0.1 0"/>
<feBlend mode="normal" in2="effect2_dropShadow_404_37" result="effect3_dropShadow_404_37"/>
<feColorMatrix in="SourceAlpha" type="matrix" values="0 0 0 0 0 0 0 0 0 0 0 0 0 0 0 0 0 0 127 0" result="hardAlpha"/>
<feOffset dy="29"/>
<feGaussianBlur stdDeviation="6"/>
<feColorMatrix type="matrix" values="0 0 0 0 0 0 0 0 0 0 0 0 0 0 0 0 0 0 0.03 0"/>
<feBlend mode="normal" in2="effect3_dropShadow_404_37" result="effect4_dropShadow_404_37"/>
<feBlend mode="normal" in="SourceGraphic" in2="effect4_dropShadow_404_37" result="shape"/>
</filter>
<filter id="filter1_dddd_404_37" x="33.585" y="68.0225" width="59.2817" height="49.7448" filterUnits="userSpaceOnUse" color-interpolation-filters="sRGB">
<feFlood flood-opacity="0" result="BackgroundImageFix"/>
<feColorMatrix in="SourceAlpha" type="matrix" values="0 0 0 0 0 0 0 0 0 0 0 0 0 0 0 0 0 0 127 0" result="hardAlpha"/>
<feOffset/>
<feGaussianBlur stdDeviation="0.5"/>
<feColorMatrix type="matrix" values="0 0 0 0 0 0 0 0 0 0 0 0 0 0 0 0 0 0 0.15 0"/>
<feBlend mode="normal" in2="BackgroundImageFix" result="effect1_dropShadow_404_37"/>
<feColorMatrix in="SourceAlpha" type="matrix" values="0 0 0 0 0 0 0 0 0 0 0 0 0 0 0 0 0 0 127 0" result="hardAlpha"/>
<feOffset dy="1"/>
<feGaussianBlur stdDeviation="0.5"/>
<feColorMatrix type="matrix" values="0 0 0 0 0 0 0 0 0 0 0 0 0 0 0 0 0 0 0.13 0"/>
<feBlend mode="normal" in2="effect1_dropShadow_404_37" result="effect2_dropShadow_404_37"/>
<feColorMatrix in="SourceAlpha" type="matrix" values="0 0 0 0 0 0 0 0 0 0 0 0 0 0 0 0 0 0 127 0" result="hardAlpha"/>
<feOffset dy="3"/>
<feGaussianBlur stdDeviation="1"/>
<feColorMatrix type="matrix" values="0 0 0 0 0 0 0 0 0 0 0 0 0 0 0 0 0 0 0.08 0"/>
<feBlend mode="normal" in2="effect2_dropShadow_404_37" result="effect3_dropShadow_404_37"/>
<feColorMatrix in="SourceAlpha" type="matrix" values="0 0 0 0 0 0 0 0 0 0 0 0 0 0 0 0 0 0 127 0" result="hardAlpha"/>
<feOffset dy="5"/>
<feGaussianBlur stdDeviation="1"/>
<feColorMatrix type="matrix" values="0 0 0 0 0 0 0 0 0 0 0 0 0 0 0 0 0 0 0.02 0"/>
<feBlend mode="normal" in2="effect3_dropShadow_404_37" result="effect4_dropShadow_404_37"/>
<feBlend mode="normal" in="SourceGraphic" in2="effect4_dropShadow_404_37" result="shape"/>
</filter>
<filter id="filter2_dddd_404_37" x="54.3413" y="34.0743" width="59.2817" height="49.7448" filterUnits="userSpaceOnUse" color-interpolation-filters="sRGB">
<feFlood flood-opacity="0" result="BackgroundImageFix"/>
<feColorMatrix in="SourceAlpha" type="matrix" values="0 0 0 0 0 0 0 0 0 0 0 0 0 0 0 0 0 0 127 0" result="hardAlpha"/>
<feOffset/>
<feGaussianBlur stdDeviation="0.5"/>
<feColorMatrix type="matrix" values="0 0 0 0 0 0 0 0 0 0 0 0 0 0 0 0 0 0 0.15 0"/>
<feBlend mode="normal" in2="BackgroundImageFix" result="effect1_dropShadow_404_37"/>
<feColorMatrix in="SourceAlpha" type="matrix" values="0 0 0 0 0 0 0 0 0 0 0 0 0 0 0 0 0 0 127 0" result="hardAlpha"/>
<feOffset dy="1"/>
<feGaussianBlur stdDeviation="0.5"/>
<feColorMatrix type="matrix" values="0 0 0 0 0 0 0 0 0 0 0 0 0 0 0 0 0 0 0.13 0"/>
<feBlend mode="normal" in2="effect1_dropShadow_404_37" result="effect2_dropShadow_404_37"/>
<feColorMatrix in="SourceAlpha" type="matrix" values="0 0 0 0 0 0 0 0 0 0 0 0 0 0 0 0 0 0 127 0" result="hardAlpha"/>
<feOffset dy="3"/>
<feGaussianBlur stdDeviation="1"/>
<feColorMatrix type="matrix" values="0 0 0 0 0 0 0 0 0 0 0 0 0 0 0 0 0 0 0.08 0"/>
<feBlend mode="normal" in2="effect2_dropShadow_404_37" result="effect3_dropShadow_404_37"/>
<feColorMatrix in="SourceAlpha" type="matrix" values="0 0 0 0 0 0 0 0 0 0 0 0 0 0 0 0 0 0 127 0" result="hardAlpha"/>
<feOffset dy="5"/>
<feGaussianBlur stdDeviation="1"/>
<feColorMatrix type="matrix" values="0 0 0 0 0 0 0 0 0 0 0 0 0 0 0 0 0 0 0.02 0"/>
<feBlend mode="normal" in2="effect3_dropShadow_404_37" result="effect4_dropShadow_404_37"/>
<feBlend mode="normal" in="SourceGraphic" in2="effect4_dropShadow_404_37" result="shape"/>
</filter>
<linearGradient id="paint0_linear_404_37" x1="11" y1="37.3538" x2="135.708" y2="109.354" gradientUnits="userSpaceOnUse">
<stop stop-color="#42454A"/>
<stop offset="1" stop-color="#15171A"/>
</linearGradient>
<linearGradient id="paint1_linear_404_37" x1="73.3536" y1="21.3538" x2="73.3536" y2="125.354" gradientUnits="userSpaceOnUse">
<stop stop-color="white"/>
<stop offset="1" stop-color="#DADADA"/>
</linearGradient>
<linearGradient id="paint2_linear_404_37" x1="66.854" y1="70.8538" x2="51.7722" y2="109.533" gradientUnits="userSpaceOnUse">
<stop stop-color="#42454A"/>
<stop offset="1" stop-color="#16181B"/>
</linearGradient>
<linearGradient id="paint3_linear_404_37" x1="69.854" y1="70.8538" x2="106.051" y2="49.2246" gradientUnits="userSpaceOnUse">
<stop stop-color="#42454A"/>
<stop offset="1" stop-color="#16181B"/>
</linearGradient>
<clipPath id="clip0_404_37">
<rect width="147" height="146" fill="white"/>
</clipPath>
<clipPath id="clip1_404_37">
<rect width="147" height="147" fill="white"/>
</clipPath>
<clipPath id="clip2_404_37">
<rect width="196.708" height="196.708" fill="white" transform="translate(-25 -25)"/>
</clipPath>
</defs>
</svg>
